<?xml version="1.0" standalone="no"?>
<!DOCTYPE svg PUBLIC "-//W3C//DTD SVG 20010904//EN"
 "http://www.w3.org/TR/2001/REC-SVG-20010904/DTD/svg10.dtd">
<svg version="1.0" xmlns="http://www.w3.org/2000/svg"
 width="1667.000000pt" height="1667.000000pt" viewBox="0 0 1667.000000 1667.000000"
 preserveAspectRatio="xMidYMid meet">
<metadata>
Created by potrace 1.16, written by Peter Selinger 2001-2019
</metadata>
<g transform="translate(0.000000,1667.000000) scale(0.100000,-0.100000)"
fill="#000000" stroke="none">
<path d="M7940 15624 c-19 -2 -105 -9 -190 -15 -285 -20 -605 -65 -920 -130
-1022 -212 -2017 -662 -2865 -1296 -1346 -1006 -2306 -2449 -2714 -4078 -136
-546 -198 -1037 -208 -1645 -8 -491 15 -830 83 -1270 199 -1284 762 -2523
1603 -3530 1391 -1663 3436 -2620 5600 -2620 2193 0 4236 963 5641 2660 1595
1926 2082 4582 1279 6972 -598 1780 -1882 3276 -3554 4144 -903 468 -1879 738
-2910 804 -143 9 -757 12 -845 4z m660 -1044 c248 -12 460 -33 680 -66 1841
-282 3449 -1365 4428 -2984 120 -200 341 -646 430 -870 365 -920 507 -1885
422 -2860 -156 -1776 -1050 -3387 -2475 -4460 -976 -734 -2130 -1160 -3364
-1241 -232 -15 -767 -6 -981 15 -807 83 -1521 290 -2225 646 -1598 808 -2783
2276 -3230 4003 -450 1741 -142 3564 855 5052 355 530 850 1059 1365 1460 603
469 1311 834 2035 1048 685 203 1377 289 2060 257z"/>
</g>
</svg>
